<svg width="31" height="31" viewBox="0 0 31 31" fill="none" xmlns="http://www.w3.org/2000/svg">
<path fill-rule="evenodd" clip-rule="evenodd" d="M12.2863 11.285H16.9287V13.5975C17.5975 12.2675 19.3125 11.0725 21.8888 11.0725C26.8275 11.0725 28 13.72 28 18.5775V27.5737H23V19.6837C23 16.9175 22.3313 15.3575 20.6287 15.3575C18.2675 15.3575 17.2863 17.0387 17.2863 19.6825V27.5737H12.2863V11.285ZM3.7125 27.3612H8.7125V11.0725H3.7125V27.3612ZM9.42875 5.76123C9.42894 6.18032 9.34582 6.59527 9.18423 6.98196C9.02265 7.36865 8.78581 7.71937 8.4875 8.01373C7.883 8.61451 7.06476 8.9508 6.2125 8.94873C5.36174 8.94816 4.54539 8.61273 3.94 8.01498C3.64276 7.71962 3.40673 7.36851 3.24543 6.98177C3.08413 6.59503 3.00072 6.18026 3 5.76123C3 4.91498 3.3375 4.10498 3.94125 3.50748C4.54611 2.90893 5.3628 2.57336 6.21375 2.57373C7.06625 2.57373 7.88375 2.90998 8.4875 3.50748C9.09 4.10498 9.42875 4.91498 9.42875 5.76123Z" fill="white"/>
</svg>
